<svg xmlns="http://www.w3.org/2000/svg" xmlns:xlink="http://www.w3.org/1999/xlink" width="156.294" height="46.253" viewBox="0 0 156.294 46.253"><defs><clipPath id="clip-path"><rect id="Rectangle_1" data-name="Rectangle 1" width="156.294" height="46.253" fill="none"></rect></clipPath></defs><g id="Group_2" data-name="Group 2" transform="translate(0 0)"><g id="Group_1" data-name="Group 1" transform="translate(0 0)" clip-path="url(#clip-path)"><path id="Path_1" data-name="Path 1" d="M231.112,51.5a6.745,6.745,0,0,1-4.237-1.49l-10.4-8.35L232.12,22.168l-3.8-3.052L212.673,38.6l-9.19-7.379,13.566-16.9a6.785,6.785,0,0,1,9.529-1.042l1.211.972.971-1.211a6.786,6.786,0,0,1,9.529-1.042l10.4,8.35L233.043,39.844l3.8,3.052L252.49,23.408l9.19,7.379-13.566,16.9a6.786,6.786,0,0,1-9.529,1.042l-1.21-.972-.972,1.211a6.77,6.77,0,0,1-5.292,2.531m-9.779-10.371,7.706,6.187a3.327,3.327,0,0,0,4.671-.511l.972-1.21-6.5-5.215,15.646-19.487L236.124,14.7a3.326,3.326,0,0,0-4.671.511l-.972,1.21,6.5,5.215Zm18.206,3.935,1.211.972a3.327,3.327,0,0,0,4.671-.511l11.4-14.2-3.8-3.052Zm-31.2-14.365,3.8,3.052,13.482-16.792-1.21-.972a3.323,3.323,0,0,0-4.67.511Z" transform="translate(-105.386 -5.446)" fill="#fff"></path><path id="Path_2" data-name="Path 2" d="M13.477,14.418V11.3H5.922A5.8,5.8,0,0,0,0,17.076v1.968a5.848,5.848,0,0,0,5.922,5.778H7.583a5.824,5.824,0,0,0,5.894-5.778Zm-3.182,4.627A2.607,2.607,0,0,1,7.583,21.7H5.922A2.607,2.607,0,0,1,3.21,19.045V17.1a2.713,2.713,0,0,1,2.712-2.686h4.373Z" transform="translate(0 -5.851)" fill="#fff"></path><path id="Path_3" data-name="Path 3" d="M8.137,68.215c0,2.007-1.134,3.066-3.348,3.066a10.585,10.585,0,0,1-3.21-.678v3.065a10.249,10.249,0,0,0,4.1.814c3.957,0,6-2.143,6-6.266V54.925H8.137Z" transform="translate(-0.818 -28.446)" fill="#fff"></path><path id="Path_4" data-name="Path 4" d="M36.327,64.486c-3.708,0-6.365,1.79-6.586,4.883h3.4a2.864,2.864,0,0,1,3.1-2.252c1.882,0,3.016.814,3.127,2.74V70.97h-2.85c-4.7,0-7.389,1.356-7.389,4.53,0,2.848,2.38,4.15,5.175,4.15,3.016,0,4.87-1.166,5.534-2.306v2.035h3.182V69.857c0-3.581-2.74-5.371-6.7-5.371M39.371,74.5c-.11,1.6-1.854,2.74-3.874,2.74-1.688,0-2.74-.732-2.74-2.007,0-1.763,1.688-2.224,3.819-2.224h2.8Z" transform="translate(-15.088 -33.398)" fill="#fff"></path><path id="Path_5" data-name="Path 5" d="M69.416,70.779c-2.38-.325-3.4-.922-3.4-2.007,0-1.112,1.079-1.844,2.629-1.844,1.494,0,2.49.624,2.767,1.817h3.542c-.47-2.957-2.878-4.313-6.337-4.313-3.377,0-6.227,1.709-6.227,4.612,0,2.848,1.937,3.852,5.756,4.367,2.545.38,3.459.841,3.459,2.007,0,1.14-1.135,1.926-2.8,1.926-1.743,0-2.961-.868-3.127-2.224H62.138c.249,2.93,2.768,4.5,6.642,4.5,3.791,0,6.586-1.492,6.586-4.53,0-2.9-2.048-3.8-5.95-4.313" transform="translate(-32.182 -33.369)" fill="#fff"></path><path id="Path_6" data-name="Path 6" d="M101.765,64.486c-3.708,0-6.365,1.79-6.586,4.883h3.4a2.864,2.864,0,0,1,3.1-2.252c1.882,0,3.016.814,3.127,2.74V70.97h-2.85c-4.7,0-7.389,1.356-7.389,4.53,0,2.848,2.38,4.15,5.175,4.15,3.016,0,4.87-1.166,5.534-2.306v2.035h3.182V69.857c0-3.581-2.74-5.371-6.7-5.371m3.044,10.01c-.111,1.6-1.854,2.74-3.874,2.74-1.688,0-2.74-.732-2.74-2.007,0-1.763,1.688-2.224,3.819-2.224h2.8Z" transform="translate(-48.979 -33.398)" fill="#fff"></path><path id="Path_7" data-name="Path 7" d="M133.58,67.956V64.7h-3.708V79.35h3.708v-7.3c0-3.174,2.712-4.123,4.871-4.069h.609V64.43h-.609a4.693,4.693,0,0,0-4.871,3.526" transform="translate(-67.262 -33.369)" fill="#fff"></path><path id="Path_8" data-name="Path 8" d="M159.8,64.486c-3.708,0-6.365,1.79-6.586,4.883h3.4a2.864,2.864,0,0,1,3.1-2.252c1.882,0,3.016.814,3.127,2.74V70.97h-2.85c-4.7,0-7.389,1.356-7.389,4.53,0,2.848,2.38,4.15,5.175,4.15,3.016,0,4.87-1.166,5.534-2.306v2.035H166.5V69.857c0-3.581-2.74-5.371-6.7-5.371m3.044,10.01c-.11,1.6-1.854,2.74-3.874,2.74-1.688,0-2.74-.732-2.74-2.007,0-1.763,1.688-2.224,3.819-2.224h2.8Z" transform="translate(-79.035 -33.398)" fill="#fff"></path><path id="Path_9" data-name="Path 9" d="M35.321,23.52V11.587H32.14V23.52c0,1.8-1.021,2.754-3.006,2.754a6.55,6.55,0,0,1-1.182-.13v2.806a10.089,10.089,0,0,0,1.975.2c3.555,0,5.394-1.925,5.394-5.626" transform="translate(-14.477 -6.001)" fill="#fff"></path><path id="Path_10" data-name="Path 10" d="M10.657,3.273a1.683,1.683,0,0,0,1.709-1.649A1.678,1.678,0,0,0,10.657,0,1.648,1.648,0,0,0,9,1.624a1.653,1.653,0,0,0,1.656,1.649" transform="translate(-4.662 0)" fill="#fff"></path><path id="Path_11" data-name="Path 11" d="M20.019,3.273a1.683,1.683,0,0,0,1.709-1.649A1.679,1.679,0,0,0,20.019,0a1.649,1.649,0,0,0-1.656,1.624,1.654,1.654,0,0,0,1.656,1.649" transform="translate(-9.51 0)" fill="#fff"></path><path id="Path_12" data-name="Path 12" d="M162.685,46.722a1.678,1.678,0,0,0-1.71-1.623,1.637,1.637,0,1,0,0,3.273,1.683,1.683,0,0,0,1.71-1.65" transform="translate(-82.513 -23.357)" fill="#fff"></path><path id="Path_13" data-name="Path 13" d="M99.855,5.482v3.1h5.721a6.557,6.557,0,0,1,3.912,1.2,5.232,5.232,0,0,1,1.919,4.5V16H92.1V16H90.712a1.677,1.677,0,0,1-1.827-1.763V6.034h-3.1v8.208A1.6,1.6,0,0,1,84.1,16h-1.55a1.669,1.669,0,0,1-1.8-1.763v-5.8h-3.1v5.8A1.654,1.654,0,0,1,75.906,16H74.383a1.605,1.605,0,0,1-1.716-1.763v-5.8H69.513v5.8c0,1.058-.581,1.763-1.965,1.763H56.38a1.142,1.142,0,0,1-1.162-1.221V.244H52.035V15.87a3.247,3.247,0,0,0,3.321,3.255H67.825c2.186,0,3.155-.542,3.791-1.438a3.206,3.206,0,0,0,2.8,1.438h2.076a3.664,3.664,0,0,0,3.21-1.383,3.391,3.391,0,0,0,2.767,1.383h2.214a3.859,3.859,0,0,0,3.238-1.383,3.221,3.221,0,0,0,2.8,1.383H92.1v0h22.426V15.3c-.006-.067-.017-.128-.017-.2v-1a7.881,7.881,0,0,0-3.1-6.766,10.012,10.012,0,0,0-5.8-1.845Z" transform="translate(-26.949 -0.126)" fill="#fff"></path></g></g></svg>