<?xml version="1.0" encoding="UTF-8"?>
<svg id="Layer_1" xmlns="http://www.w3.org/2000/svg" version="1.1" viewBox="0 0 1080 1080">
  <!-- Generator: Adobe Illustrator 29.6.1, SVG Export Plug-In . SVG Version: 2.1.1 Build 9)  -->
  <defs>
    <style>
      .st0 {
        fill: #2D359E;
      }
    </style>
  </defs>
  <path id="Path_1" class="st0" d="M514.5,895.7c-26.75.03-52.7-9.09-73.53-25.86l-180.49-144.91,271.52-338.28-65.95-52.97-271.55,338.14-159.49-128.06,235.44-293.3c40.71-50.6,114.69-58.69,165.37-18.08l21.02,16.87,16.85-21.02c40.71-50.59,114.69-58.68,165.37-18.08l180.49,144.91-271.53,338.35,65.95,52.97,271.55-338.21,159.49,128.06-235.44,293.3c-40.71,50.59-114.69,58.68-165.37,18.08l-21-16.87-16.87,21.02c-22.35,27.83-56.14,44-91.84,43.93M344.77,715.7l133.74,107.37c24.85,19.89,61.11,15.93,81.06-8.87l16.87-21-112.81-90.51,271.53-338.19-133.68-107.46c-24.84-19.9-61.11-15.94-81.06,8.87l-16.87,21,112.81,90.51-271.59,338.28ZM660.73,783.99l21.02,16.87c24.85,19.89,61.11,15.93,81.06-8.87l197.85-246.44-65.95-52.97-233.98,291.41ZM119.26,534.69l65.95,52.97,233.98-291.42-21-16.87c-24.83-19.92-61.11-15.95-81.05,8.87l-197.88,246.46Z"/>
</svg>